<?xml version="1.0" standalone="no"?><!DOCTYPE svg PUBLIC "-//W3C//DTD SVG 1.1//EN" "http://www.w3.org/Graphics/SVG/1.1/DTD/svg11.dtd"><svg t="1628468442336" class="icon" viewBox="0 0 1024 1024" version="1.1" xmlns="http://www.w3.org/2000/svg" p-id="9442" xmlns:xlink="http://www.w3.org/1999/xlink" width="200" height="200"><defs><style type="text/css"></style></defs><path d="M810.666667 149.333333H213.333333c-23.466667 0-42.666667 19.2-42.666666 42.666667v128c0 23.466667 19.2 42.666667 42.666666 42.666667h597.333334c23.466667 0 42.666667-19.2 42.666666-42.666667V192c0-23.466667-19.2-42.666667-42.666666-42.666667zM810.666667 405.333333H213.333333c-23.466667 0-42.666667 19.2-42.666666 42.666667v128c0 23.466667 19.2 42.666667 42.666666 42.666667h597.333334c23.466667 0 42.666667-19.2 42.666666-42.666667v-128c0-23.466667-19.2-42.666667-42.666666-42.666667zM810.666667 661.333333H213.333333c-23.466667 0-42.666667 19.2-42.666666 42.666667v128c0 23.466667 19.2 42.666667 42.666666 42.666667h597.333334c23.466667 0 42.666667-19.2 42.666666-42.666667v-128c0-23.466667-19.2-42.666667-42.666666-42.666667z" fill="#8FBB87" p-id="9443" data-spm-anchor-id="a313x.7781069.0.i0" class=""></path><path d="M810.666667 810.666667m-213.333334 0a213.333333 213.333333 0 1 0 426.666667 0 213.333333 213.333333 0 1 0-426.666667 0Z" fill="#DD5058" p-id="9444" data-spm-anchor-id="a313x.7781069.0.i1" class=""></path><path d="M923.946667 878.528l-45.226667 45.269333-181.013333-180.992 45.248-45.269333z" fill="#FFFFFF" p-id="9445"></path><path d="M742.805333 923.946667l-45.269333-45.226667 180.992-181.013333 45.269333 45.248z" fill="#FFFFFF" p-id="9446"></path></svg>