<?xml version="1.0" standalone="no"?><!DOCTYPE svg PUBLIC "-//W3C//DTD SVG 1.1//EN" "http://www.w3.org/Graphics/SVG/1.1/DTD/svg11.dtd"><svg t="1627460247593" class="icon" viewBox="0 0 1024 1024" version="1.1" xmlns="http://www.w3.org/2000/svg" p-id="31502" xmlns:xlink="http://www.w3.org/1999/xlink" width="200" height="200"><defs><style type="text/css">@font-face { font-family: "feedback-iconfont"; src: url("//at.alicdn.com/t/font_1031158_1uhr8ri0pk5.eot?#iefix") format("embedded-opentype"), url("//at.alicdn.com/t/font_1031158_1uhr8ri0pk5.woff2") format("woff2"), url("//at.alicdn.com/t/font_1031158_1uhr8ri0pk5.woff") format("woff"), url("//at.alicdn.com/t/font_1031158_1uhr8ri0pk5.ttf") format("truetype"), url("//at.alicdn.com/t/font_1031158_1uhr8ri0pk5.svg#iconfont") format("svg"); }
</style></defs><path d="M835.87 214.85L710.8 89.77A88.354 88.354 0 0 0 648.26 64H420.85c-48.77 0-88.31 39.54-88.31 88.31v530.62c0 48.77 39.53 88.31 88.31 88.31h353.62c48.77 0 88.31-39.54 88.31-88.31V278.51a88.301 88.301 0 0 0-26.91-63.66z" fill="#62606F" p-id="31503" data-spm-anchor-id="a313x.7781069.0.i55" class="selected"></path><path d="M665.31 404.36L539.48 278.52a88.354 88.354 0 0 0-62.54-25.77H249.53c-48.77 0-88.31 39.54-88.31 88.31v530.62c0 48.77 39.53 88.31 88.31 88.31h353.62c48.77 0 88.31-39.54 88.31-88.31V468.02a88.264 88.264 0 0 0-26.15-63.66z" fill="#DD5058" p-id="31504" data-spm-anchor-id="a313x.7781069.0.i52" class=""></path></svg>