<?xml version="1.0" standalone="no"?><!DOCTYPE svg PUBLIC "-//W3C//DTD SVG 1.1//EN" "http://www.w3.org/Graphics/SVG/1.1/DTD/svg11.dtd"><svg t="1627460208103" class="icon" viewBox="0 0 1024 1024" version="1.1" xmlns="http://www.w3.org/2000/svg" p-id="30930" xmlns:xlink="http://www.w3.org/1999/xlink" width="200" height="200"><defs><style type="text/css">@font-face { font-family: "feedback-iconfont"; src: url("//at.alicdn.com/t/font_1031158_1uhr8ri0pk5.eot?#iefix") format("embedded-opentype"), url("//at.alicdn.com/t/font_1031158_1uhr8ri0pk5.woff2") format("woff2"), url("//at.alicdn.com/t/font_1031158_1uhr8ri0pk5.woff") format("woff"), url("//at.alicdn.com/t/font_1031158_1uhr8ri0pk5.ttf") format("truetype"), url("//at.alicdn.com/t/font_1031158_1uhr8ri0pk5.svg#iconfont") format("svg"); }
</style></defs><path d="M521.258667 306.858667l140.032 143.786666L310.698667 810.666667H170.666667v-143.786667l350.592-360.021333z m40.021333-41.045334l80.810667-83.029333a40.021333 40.021333 0 0 1 57.344 0l84.181333 86.442667a40.021333 40.021333 0 0 1 0 55.850666l-82.304 84.48-140.032-143.786666z m-54.144 464.810667h263.509333a40.021333 40.021333 0 0 1 0 80.042667H467.2a23.466667 23.466667 0 0 1-16.597333-40.021334l28.288-28.288a40.021333 40.021333 0 0 1 28.330666-11.733333z" p-id="30931"></path></svg>