<?xml version="1.0" standalone="no"?><!DOCTYPE svg PUBLIC "-//W3C//DTD SVG 1.1//EN" "http://www.w3.org/Graphics/SVG/1.1/DTD/svg11.dtd"><svg t="1627374485972" class="icon" viewBox="0 0 1024 1024" version="1.1" xmlns="http://www.w3.org/2000/svg" p-id="8010" data-spm-anchor-id="a313x.7781069.0.i19" xmlns:xlink="http://www.w3.org/1999/xlink" width="200" height="200"><defs><style type="text/css">@font-face { font-family: "feedback-iconfont"; src: url("//at.alicdn.com/t/font_1031158_1uhr8ri0pk5.eot?#iefix") format("embedded-opentype"), url("//at.alicdn.com/t/font_1031158_1uhr8ri0pk5.woff2") format("woff2"), url("//at.alicdn.com/t/font_1031158_1uhr8ri0pk5.woff") format("woff"), url("//at.alicdn.com/t/font_1031158_1uhr8ri0pk5.ttf") format("truetype"), url("//at.alicdn.com/t/font_1031158_1uhr8ri0pk5.svg#iconfont") format("svg"); }
</style></defs><path d="M896 800l-96 0 0-32c17.696 0 32-14.336 32-32 0-17.696-14.304-32-32-32l-64 0c-17.696 0-32 14.304-32 32 0 17.664 14.304 32 32 32l0 32-416 0 0-32c17.696 0 32-14.336 32-32 0-17.696-14.304-32-32-32l-64 0c-17.696 0-32 14.304-32 32 0 17.664 14.304 32 32 32l0 32-128 0c-35.328 0-64-28.672-64-64l0-448c0-35.328 28.672-64 64-64l768 0c35.328 0 64 28.672 64 64l0 448c0 35.328-28.672 64-64 64zM320 313.984c-38.656 0-70.016 41.184-70.016 92s31.36 92 70.016 92 70.016-41.184 70.016-92-31.36-92-70.016-92zM431.68 534.016c-17.248-11.488-66.912-19.136-66.912-19.136s-32.192 34.4-45.856 34.4c-13.696 0-45.888-34.4-45.888-34.4s-49.664 7.616-66.88 19.136c-17.248 11.456-24.864 72.352-24.864 72.352l275.68 0c0.032-0.032-5.024-58.88-25.28-72.352zM832 352l-288 0 0 32 288 0 0-32zM832 416l-288 0 0 32 288 0 0-32zM832 480l-288 0 0 32 288 0 0-32zM832 544l-288 0 0 32 288 0 0-32z" p-id="8011" data-spm-anchor-id="a313x.7781069.0.i18" class="" fill="#ffffff"></path></svg>