<?xml version="1.0" standalone="no"?><!DOCTYPE svg PUBLIC "-//W3C//DTD SVG 1.1//EN" "http://www.w3.org/Graphics/SVG/1.1/DTD/svg11.dtd"><svg t="1627375064156" class="icon" viewBox="0 0 1024 1024" version="1.1" xmlns="http://www.w3.org/2000/svg" p-id="19006" xmlns:xlink="http://www.w3.org/1999/xlink" width="200" height="200"><defs><style type="text/css">@font-face { font-family: "feedback-iconfont"; src: url("//at.alicdn.com/t/font_1031158_1uhr8ri0pk5.eot?#iefix") format("embedded-opentype"), url("//at.alicdn.com/t/font_1031158_1uhr8ri0pk5.woff2") format("woff2"), url("//at.alicdn.com/t/font_1031158_1uhr8ri0pk5.woff") format("woff"), url("//at.alicdn.com/t/font_1031158_1uhr8ri0pk5.ttf") format("truetype"), url("//at.alicdn.com/t/font_1031158_1uhr8ri0pk5.svg#iconfont") format("svg"); }
</style></defs><path d="M480 128v32H128v576h768V160H544V128h-64zM192 224h640v448H192V224z m480 83.008l-23.008 21.984L512 465.984l-104.992-104.96-23.008-22.016-23.008 21.984-96 96L311.04 503.04 384 430.016l104.992 104.96 23.008 22.016 23.008-21.984L672 397.984l40.992 41.024 46.016-46.016-64-64L672 307.008zM416 768l-64 128h64l64-128h-64z m128 0l64 128h64l-64-128h-64z" p-id="19007" fill="#ffffff"></path></svg>