<?xml version="1.0" standalone="no"?><!DOCTYPE svg PUBLIC "-//W3C//DTD SVG 1.1//EN" "http://www.w3.org/Graphics/SVG/1.1/DTD/svg11.dtd"><svg t="1627373986166" class="icon" viewBox="0 0 1024 1024" version="1.1" xmlns="http://www.w3.org/2000/svg" p-id="5922" data-spm-anchor-id="a313x.7781069.0.i4" xmlns:xlink="http://www.w3.org/1999/xlink" width="200" height="200"><defs><style type="text/css">@font-face { font-family: "feedback-iconfont"; src: url("//at.alicdn.com/t/font_1031158_1uhr8ri0pk5.eot?#iefix") format("embedded-opentype"), url("//at.alicdn.com/t/font_1031158_1uhr8ri0pk5.woff2") format("woff2"), url("//at.alicdn.com/t/font_1031158_1uhr8ri0pk5.woff") format("woff"), url("//at.alicdn.com/t/font_1031158_1uhr8ri0pk5.ttf") format("truetype"), url("//at.alicdn.com/t/font_1031158_1uhr8ri0pk5.svg#iconfont") format("svg"); }
</style></defs><path d="M384 256l0 85.333333-213.333333 0L170.666667 256z" fill="#ffffff" p-id="5923" data-spm-anchor-id="a313x.7781069.0.i10" class="selected"></path><path d="M853.333333 256l0 85.333333-426.666666 0L426.666667 256z" fill="#ffffff" p-id="5924" data-spm-anchor-id="a313x.7781069.0.i11" class="selected"></path><path d="M384 213.333333l0 170.666667-85.333333 0L298.666667 213.333333z" fill="#ffffff" p-id="5925" data-spm-anchor-id="a313x.7781069.0.i12" class="selected"></path><path d="M554.666667 426.666667l0 170.666666-85.333334 0L469.333333 426.666667z" fill="#ffffff" p-id="5926" data-spm-anchor-id="a313x.7781069.0.i8" class=""></path><path d="M682.666667 640l0 170.666667-85.333334 0L597.333333 640z" fill="#ffffff" p-id="5927" data-spm-anchor-id="a313x.7781069.0.i14" class="selected"></path><path d="M853.333333 469.333333l0 85.333334-256 0L597.333333 469.333333z" fill="#ffffff" p-id="5928" data-spm-anchor-id="a313x.7781069.0.i7" class=""></path><path d="M554.666667 469.333333l0 85.333334-384 0L170.666667 469.333333z" fill="#ffffff" p-id="5929" data-spm-anchor-id="a313x.7781069.0.i6" class=""></path><path d="M682.666667 682.666667l0 85.333333-512 0L170.666667 682.666667z" fill="#ffffff" p-id="5930" data-spm-anchor-id="a313x.7781069.0.i5" class=""></path><path d="M853.333333 682.666667l0 85.333333-128 0L725.333333 682.666667z" fill="#ffffff" p-id="5931" data-spm-anchor-id="a313x.7781069.0.i9" class=""></path></svg>