<?xml version="1.0" standalone="no"?><!DOCTYPE svg PUBLIC "-//W3C//DTD SVG 1.1//EN" "http://www.w3.org/Graphics/SVG/1.1/DTD/svg11.dtd"><svg t="1627374572881" class="icon" viewBox="0 0 1024 1024" version="1.1" xmlns="http://www.w3.org/2000/svg" p-id="11116" xmlns:xlink="http://www.w3.org/1999/xlink" width="200" height="200"><defs><style type="text/css">@font-face { font-family: "feedback-iconfont"; src: url("//at.alicdn.com/t/font_1031158_1uhr8ri0pk5.eot?#iefix") format("embedded-opentype"), url("//at.alicdn.com/t/font_1031158_1uhr8ri0pk5.woff2") format("woff2"), url("//at.alicdn.com/t/font_1031158_1uhr8ri0pk5.woff") format("woff"), url("//at.alicdn.com/t/font_1031158_1uhr8ri0pk5.ttf") format("truetype"), url("//at.alicdn.com/t/font_1031158_1uhr8ri0pk5.svg#iconfont") format("svg"); }
</style></defs><path d="M680.964226 902.043391c-1.362021 31.798217-27.571962 56.665581-59.106166 56.665581-0.851391 0-1.707898-0.016373-2.570545-0.053212-32.664957-1.397836-58.014298-29.007661-56.621579-61.667501 6.517437-152.447041-30.026874-267.152503-108.62293-340.93288C328.85582 438.533778 132.871193 457.808774 130.905422 458.024691c-32.385595 3.462868-61.639872-20.015869-65.177442-52.450583-3.53143-32.43369 19.772322-61.604056 52.207036-65.219397 10.143011-1.150196 250.728438-26.002211 416.318824 128.610146C639.679961 567.401798 689.043229 713.106274 680.964226 902.043391zM215.776392 672.863734c-36.812417 0-72.871681 14.960737-98.91994 41.004903-26.053376 26.044166-41.011043 62.098313-41.011043 98.904591 0 36.805254 14.957667 72.860425 41.011043 98.903567 26.048259 26.044166 62.107523 41.004903 98.91994 41.004903 36.916794 0 72.977082-14.960737 98.91994-41.004903 26.048259-26.044166 41.011043-62.098313 41.011043-98.903567 0-36.806277-14.962783-72.861448-41.011043-98.904591C288.753473 687.824471 252.693186 672.863734 215.776392 672.863734zM739.609904 255.634168C492.716818 27.048029 132.646066 67.300802 117.439736 69.124334c-32.460296 3.898797-55.616692 33.368992-51.721988 65.829288 3.894703 32.44904 33.357735 55.539944 65.839521 51.713802 3.174296-0.3776 320.463686-35.960003 527.600303 155.825998 129.992633 120.355135 190.540637 306.917158 179.960675 554.49586-1.39272 32.658817 23.955598 60.268642 56.621579 61.667501 0.860601 0.036839 1.718131 0.053212 2.569522 0.053212 31.535227 0 57.746192-24.867364 59.108213-56.665581C969.546807 618.159832 896.26478 400.676565 739.609904 255.634168z" p-id="11117" data-spm-anchor-id="a313x.7781069.0.i21" class="selected" fill="#ffffff"></path></svg>